<mxfile host="Electron" modified="2023-06-25T23:24:14.381Z" agent="Mozilla/5.0 (X11; Linux x86_64) AppleWebKit/537.36 (KHTML, like Gecko) draw.io/21.5.0 Chrome/112.0.5615.204 Electron/24.5.1 Safari/537.36" etag="AIVvryPFz8NxFBqfqTbv" version="21.5.0" type="device">
  <diagram name="Page-1" id="DEeEqAGGC7hHPTjrnmnX">
    <mxGraphModel dx="1360" dy="843" grid="1" gridSize="10" guides="1" tooltips="1" connect="1" arrows="1" fold="1" page="1" pageScale="1" pageWidth="827" pageHeight="1169" math="0" shadow="0">
      <root>
        <mxCell id="0" />
        <mxCell id="1" parent="0" />
        <mxCell id="kYmHH0D3QfaIQrBctRtj-2" value="Query dblp.org to get MICCAI papers between 2013 and 2023 (n=3840)" style="rounded=0;whiteSpace=wrap;html=1;" vertex="1" parent="1">
          <mxGeometry x="180" y="120" width="120" height="60" as="geometry" />
        </mxCell>
        <mxCell id="kYmHH0D3QfaIQrBctRtj-3" value="5 cardiac datasets" style="rounded=0;whiteSpace=wrap;html=1;" vertex="1" parent="1">
          <mxGeometry x="500" y="120" width="120" height="60" as="geometry" />
        </mxCell>
        <mxCell id="kYmHH0D3QfaIQrBctRtj-6" value="Papers Referencing a dataset&lt;br&gt;ACDC: 40&lt;br&gt;Sunnybrook: 5&lt;br&gt;STACOM&#39;11: 0&lt;br&gt;RVSC: 1&lt;br&gt;M&amp;amp;Ms: 8&lt;span style=&quot;white-space: pre;&quot;&gt;&#x9;&lt;/span&gt;" style="rounded=0;whiteSpace=wrap;html=1;" vertex="1" parent="1">
          <mxGeometry x="580" y="380" width="160" height="100" as="geometry" />
        </mxCell>
        <mxCell id="kYmHH0D3QfaIQrBctRtj-25" value="" style="edgeStyle=orthogonalEdgeStyle;rounded=0;orthogonalLoop=1;jettySize=auto;html=1;" edge="1" parent="1" source="kYmHH0D3QfaIQrBctRtj-7" target="kYmHH0D3QfaIQrBctRtj-24">
          <mxGeometry relative="1" as="geometry" />
        </mxCell>
        <mxCell id="kYmHH0D3QfaIQrBctRtj-7" value="Number of paper with the name of the dataset in the abstract:&lt;br&gt;ACDC: 8&lt;br style=&quot;border-color: var(--border-color);&quot;&gt;Sunnybrook: 1&lt;br style=&quot;border-color: var(--border-color);&quot;&gt;STACOM&#39;11: 0&lt;br style=&quot;border-color: var(--border-color);&quot;&gt;RVSC: 0&lt;br style=&quot;border-color: var(--border-color);&quot;&gt;M&amp;amp;Ms: 0" style="rounded=0;whiteSpace=wrap;html=1;" vertex="1" parent="1">
          <mxGeometry x="680" y="550" width="200" height="100" as="geometry" />
        </mxCell>
        <mxCell id="kYmHH0D3QfaIQrBctRtj-9" value="Number of paper with the name of the dataset in a table:&lt;br&gt;ACDC: 26&lt;br style=&quot;border-color: var(--border-color);&quot;&gt;Sunnybrook: 2&lt;br style=&quot;border-color: var(--border-color);&quot;&gt;STACOM&#39;11: 0&lt;br style=&quot;border-color: var(--border-color);&quot;&gt;RVSC: 0&lt;br style=&quot;border-color: var(--border-color);&quot;&gt;M&amp;amp;Ms: 7" style="rounded=0;whiteSpace=wrap;html=1;" vertex="1" parent="1">
          <mxGeometry x="450" y="550" width="200" height="100" as="geometry" />
        </mxCell>
        <mxCell id="kYmHH0D3QfaIQrBctRtj-14" value="Number of paper with the name of the dataset in a table:&lt;br&gt;ACDC: 8&lt;br style=&quot;border-color: var(--border-color);&quot;&gt;Sunnybrook: 1&lt;br style=&quot;border-color: var(--border-color);&quot;&gt;STACOM&#39;11: 0&lt;br style=&quot;border-color: var(--border-color);&quot;&gt;RVSC: 0&lt;br style=&quot;border-color: var(--border-color);&quot;&gt;M&amp;amp;Ms: 0" style="rounded=0;whiteSpace=wrap;html=1;" vertex="1" parent="1">
          <mxGeometry x="20" y="380" width="200" height="100" as="geometry" />
        </mxCell>
        <mxCell id="kYmHH0D3QfaIQrBctRtj-15" value="Number of paper with the name of the dataset in the abstract:&lt;br&gt;ACDC: 14&lt;br style=&quot;border-color: var(--border-color);&quot;&gt;Sunnybrook: 1&lt;br style=&quot;border-color: var(--border-color);&quot;&gt;STACOM&#39;11: 0&lt;br style=&quot;border-color: var(--border-color);&quot;&gt;RVSC: 0&lt;br style=&quot;border-color: var(--border-color);&quot;&gt;M&amp;amp;Ms: 0" style="rounded=0;whiteSpace=wrap;html=1;" vertex="1" parent="1">
          <mxGeometry x="300" y="380" width="200" height="100" as="geometry" />
        </mxCell>
        <mxCell id="kYmHH0D3QfaIQrBctRtj-16" value="" style="endArrow=classic;html=1;rounded=0;exitX=0.5;exitY=1;exitDx=0;exitDy=0;entryX=0.5;entryY=0;entryDx=0;entryDy=0;" edge="1" parent="1" source="kYmHH0D3QfaIQrBctRtj-6" target="kYmHH0D3QfaIQrBctRtj-9">
          <mxGeometry width="50" height="50" relative="1" as="geometry">
            <mxPoint x="390" y="460" as="sourcePoint" />
            <mxPoint x="440" y="410" as="targetPoint" />
          </mxGeometry>
        </mxCell>
        <mxCell id="kYmHH0D3QfaIQrBctRtj-17" value="" style="endArrow=classic;html=1;rounded=0;exitX=0.5;exitY=1;exitDx=0;exitDy=0;entryX=0.5;entryY=0;entryDx=0;entryDy=0;" edge="1" parent="1" source="kYmHH0D3QfaIQrBctRtj-6" target="kYmHH0D3QfaIQrBctRtj-7">
          <mxGeometry width="50" height="50" relative="1" as="geometry">
            <mxPoint x="390" y="460" as="sourcePoint" />
            <mxPoint x="440" y="410" as="targetPoint" />
          </mxGeometry>
        </mxCell>
        <mxCell id="kYmHH0D3QfaIQrBctRtj-18" value="" style="endArrow=classic;html=1;rounded=0;entryX=0.5;entryY=0;entryDx=0;entryDy=0;" edge="1" parent="1" target="kYmHH0D3QfaIQrBctRtj-15">
          <mxGeometry width="50" height="50" relative="1" as="geometry">
            <mxPoint x="400" y="280" as="sourcePoint" />
            <mxPoint x="440" y="410" as="targetPoint" />
          </mxGeometry>
        </mxCell>
        <mxCell id="kYmHH0D3QfaIQrBctRtj-19" value="" style="endArrow=none;html=1;rounded=0;exitX=0.5;exitY=1;exitDx=0;exitDy=0;entryX=0.5;entryY=1;entryDx=0;entryDy=0;" edge="1" parent="1" source="kYmHH0D3QfaIQrBctRtj-2" target="kYmHH0D3QfaIQrBctRtj-3">
          <mxGeometry width="50" height="50" relative="1" as="geometry">
            <mxPoint x="390" y="460" as="sourcePoint" />
            <mxPoint x="440" y="410" as="targetPoint" />
            <Array as="points">
              <mxPoint x="240" y="280" />
              <mxPoint x="560" y="280" />
            </Array>
          </mxGeometry>
        </mxCell>
        <mxCell id="kYmHH0D3QfaIQrBctRtj-20" value="" style="endArrow=classic;html=1;rounded=0;entryX=0.5;entryY=0;entryDx=0;entryDy=0;" edge="1" parent="1" source="kYmHH0D3QfaIQrBctRtj-22" target="kYmHH0D3QfaIQrBctRtj-6">
          <mxGeometry width="50" height="50" relative="1" as="geometry">
            <mxPoint x="400" y="280" as="sourcePoint" />
            <mxPoint x="440" y="410" as="targetPoint" />
          </mxGeometry>
        </mxCell>
        <mxCell id="kYmHH0D3QfaIQrBctRtj-21" value="" style="endArrow=classic;html=1;rounded=0;entryX=0.5;entryY=0;entryDx=0;entryDy=0;" edge="1" parent="1" target="kYmHH0D3QfaIQrBctRtj-14">
          <mxGeometry width="50" height="50" relative="1" as="geometry">
            <mxPoint x="400" y="280" as="sourcePoint" />
            <mxPoint x="440" y="410" as="targetPoint" />
          </mxGeometry>
        </mxCell>
        <mxCell id="kYmHH0D3QfaIQrBctRtj-23" value="" style="endArrow=classic;html=1;rounded=0;entryX=0.5;entryY=0;entryDx=0;entryDy=0;" edge="1" parent="1" target="kYmHH0D3QfaIQrBctRtj-22">
          <mxGeometry width="50" height="50" relative="1" as="geometry">
            <mxPoint x="400" y="280" as="sourcePoint" />
            <mxPoint x="660" y="380" as="targetPoint" />
          </mxGeometry>
        </mxCell>
        <mxCell id="kYmHH0D3QfaIQrBctRtj-22" value="Query OpenAlex" style="rounded=0;whiteSpace=wrap;html=1;" vertex="1" parent="1">
          <mxGeometry x="340" y="260" width="120" height="60" as="geometry" />
        </mxCell>
        <mxCell id="kYmHH0D3QfaIQrBctRtj-24" value="Number of paper with the name of the dataset NOT in abstract but in a table:&lt;br&gt;ACDC: 21&lt;br style=&quot;border-color: var(--border-color);&quot;&gt;Sunnybrook 1:&amp;nbsp;&lt;br style=&quot;border-color: var(--border-color);&quot;&gt;STACOM&#39;11: 0&lt;br style=&quot;border-color: var(--border-color);&quot;&gt;RVSC: 0&lt;br style=&quot;border-color: var(--border-color);&quot;&gt;M&amp;amp;Ms: 7" style="rounded=0;whiteSpace=wrap;html=1;" vertex="1" parent="1">
          <mxGeometry x="670" y="730" width="220" height="120" as="geometry" />
        </mxCell>
        <mxCell id="kYmHH0D3QfaIQrBctRtj-27" value="2149 fullpaper retrieved" style="text;html=1;strokeColor=none;fillColor=none;align=center;verticalAlign=middle;whiteSpace=wrap;rounded=0;" vertex="1" parent="1">
          <mxGeometry x="130" y="310" width="70" height="40" as="geometry" />
        </mxCell>
      </root>
    </mxGraphModel>
  </diagram>
</mxfile>
